<?xml version="1.0" standalone="no"?>
<!DOCTYPE svg PUBLIC "-//W3C//DTD SVG 20010904//EN"
 "http://www.w3.org/TR/2001/REC-SVG-20010904/DTD/svg10.dtd">
<svg version="1.0" xmlns="http://www.w3.org/2000/svg"
 width="521.000000pt" height="521.000000pt" viewBox="0 0 521.000000 521.000000"
 preserveAspectRatio="xMidYMid meet">
<metadata>
Created by potrace 1.11, written by Peter Selinger 2001-2013
</metadata>
<g transform="translate(0.000000,521.000000) scale(0.100000,-0.100000)"
fill="#000000" stroke="none">
<path d="M2410 5194 c-404 -48 -653 -117 -945 -260 -252 -123 -456 -267 -664
-469 -429 -417 -680 -914 -773 -1530 -20 -140 -17 -550 6 -700 128 -837 637
-1554 1379 -1940 392 -205 847 -309 1277 -292 276 11 481 48 738 132 381 126
722 335 1008 620 205 205 352 403 477 645 524 1012 336 2230 -469 3034 -403
403 -899 652 -1474 741 -100 15 -482 28 -560 19z m40 -1174 l0 -800 -185 0
-185 0 0 565 c0 508 -2 565 -16 565 -28 0 -217 -79 -316 -133 -268 -144 -516
-376 -675 -632 -558 -894 -243 -2067 687 -2563 82 -44 224 -104 298 -127 l22
-6 0 565 0 566 185 0 185 0 0 -820 0 -820 -37 0 c-59 0 -278 38 -382 66 -722
196 -1305 744 -1540 1451 -148 445 -148 959 0 1406 48 145 164 386 246 512
348 531 906 892 1532 990 47 7 107 13 134 14 l47 1 0 -800z m520 774 c457 -70
924 -316 1249 -660 340 -359 545 -803 602 -1303 17 -149 7 -454 -20 -606 -111
-632 -481 -1180 -1022 -1516 -251 -156 -603 -282 -879 -313 -30 -4 -72 -9 -92
-12 l-38 -6 0 821 0 821 520 0 520 0 0 -185 0 -185 -335 0 -335 0 0 -381 0
-381 28 7 c58 14 231 88 317 136 697 386 1064 1180 905 1957 -112 544 -473
1012 -975 1265 -61 30 -254 107 -270 107 -3 0 -5 -254 -5 -565 l0 -565 -185 0
-185 0 0 795 0 796 53 -7 c28 -3 95 -12 147 -20z"/>
</g>
</svg>
